<svg xmlns="http://www.w3.org/2000/svg" viewBox="0 0 27 33.49">
  <path fill="#fff" d="M25.9969 1.0026V24.0602a4.247 4.247 0 0 1-4.2414 4.2414H17.78a5.197 5.197 0 0 0-4.2181 2.1721 5.197 5.197 0 0 0-4.2187-2.1721H5.2436a4.247 4.247 0 0 1-4.2414-4.2414V1.0026h24.9947ZM26.9991-.0001H0v24.0603a5.244 5.244 0 0 0 5.2436 5.2435h4.0996a4.194 4.194 0 0 1 4.1912 4.1599l.0161.0261h.0194l.019-.0313a4.194 4.194 0 0 1 4.1911-4.1548h3.9755a5.244 5.244 0 0 0 5.2436-5.2435V-.0001Z"/>
  <path fill="#fff" fill-rule="evenodd" d="m5.2625 21.2588-.0104 1.6803 3.1747-2.808-3.9452-.0824 5.2502-4.5257-5.2502-4.5257 4.493-.0734-3.3449-3.4359.0171 1.6642-2.1356-4.4598 4.8237 2.0545-1.6845.0337 5.4255 5.2989H8.1193l3.8704 3.4434-3.8434 3.4429h3.5657l-5.4454 4.9744 2.0413.0199-5.1606 1.92 2.1152-4.6214Z"/>
  <path fill="#fff" fill-rule="evenodd" d="m15.5871 23.6465-1.4708 1.2856V5.587l1.4708 1.2855-2.084-5.4174-2.0906 5.4174 1.4703-1.2855v19.3451l-1.4703-1.2856 2.0906 5.417 2.084-5.417Z"/>
  <path fill="#fff" fill-rule="evenodd" d="m21.7499 21.2318-.0057 1.7059-3.1748-2.808 3.9452-.0829-5.2506-4.5257 5.2506-4.5257-4.4934-.073 3.3387-3.4325.0019 1.7215 2.1233-4.5209-4.8806 2.055h1.7821l-5.4667 5.3327h3.9571l-3.8704 3.4429 3.8433 3.4429h-3.5661l5.4459 4.9744-2.0413.0204 4.9805 1.8726-1.919-4.5996Z"/>
</svg>
